<mxfile host="65bd71144e" pages="2">
    <diagram id="mfiSi-fbWTMoGxgPWjPw" name="ざっくりフローチャート">
        <mxGraphModel dx="629" dy="678" grid="1" gridSize="10" guides="1" tooltips="1" connect="1" arrows="1" fold="1" page="1" pageScale="1" pageWidth="1169" pageHeight="1654" math="0" shadow="0">
            <root>
                <mxCell id="0"/>
                <mxCell id="1" parent="0"/>
                <mxCell id="dkoVrRs7bPhuk5vK6KKF-3" style="edgeStyle=none;html=1;exitX=0.5;exitY=1;exitDx=0;exitDy=0;entryX=0.5;entryY=0;entryDx=0;entryDy=0;fontFamily=BIZ UDGothic;fontSource=https%3A%2F%2Ffonts.googleapis.com%2Fcss%3Ffamily%3DBIZ%2BUDGothic;fontSize=27;" edge="1" parent="1" source="dkoVrRs7bPhuk5vK6KKF-1" target="dkoVrRs7bPhuk5vK6KKF-2">
                    <mxGeometry relative="1" as="geometry"/>
                </mxCell>
                <mxCell id="dkoVrRs7bPhuk5vK6KKF-1" value="&lt;font style=&quot;font-size: 35px&quot;&gt;Start&lt;/font&gt;" style="rounded=1;whiteSpace=wrap;html=1;fontFamily=BIZ UDGothic;fontSource=https%3A%2F%2Ffonts.googleapis.com%2Fcss%3Ffamily%3DBIZ%2BUDGothic;arcSize=50;" vertex="1" parent="1">
                    <mxGeometry x="120" y="40" width="160" height="60" as="geometry"/>
                </mxCell>
                <mxCell id="dkoVrRs7bPhuk5vK6KKF-2" value="&lt;font style=&quot;font-size: 27px&quot;&gt;45度左に曲がる&lt;/font&gt;" style="rounded=0;whiteSpace=wrap;html=1;fontFamily=BIZ UDGothic;fontSource=https%3A%2F%2Ffonts.googleapis.com%2Fcss%3Ffamily%3DBIZ%2BUDGothic;fontSize=35;" vertex="1" parent="1">
                    <mxGeometry x="80" y="140" width="240" height="80" as="geometry"/>
                </mxCell>
            </root>
        </mxGraphModel>
    </diagram>
    <diagram id="c9UmtyuYt1wYWpdzigeg" name="機体の構想">
        <mxGraphModel dx="409" dy="441" grid="1" gridSize="10" guides="1" tooltips="1" connect="1" arrows="1" fold="1" page="1" pageScale="1" pageWidth="1169" pageHeight="1654" math="0" shadow="0">
            <root>
                <mxCell id="Bt-0ImcH46Peuu837g29-0"/>
                <mxCell id="Bt-0ImcH46Peuu837g29-1" parent="Bt-0ImcH46Peuu837g29-0"/>
            </root>
        </mxGraphModel>
    </diagram>
</mxfile>